<svg width="640" viewBox="0 0 680 180" xmlns="http://www.w3.org/2000/svg" font-family="Segoe UI, Helvetica, Arial, sans-serif" role="img" aria-label="Title odds before the quarter-finals">
<title>Title odds before the quarter-finals (8 teams)</title>
<text x="10" y="26" text-anchor="start" fill="#6b6a66" font-size="14">2 · Before the quarter-finals (Jul 7) — Spain edges ahead, Brazil out</text>
<rect x="130" y="46" width="212" height="12" rx="2" fill="#0F6E56"/><text x="123" y="55" text-anchor="end" fill="#6b6a66" font-size="11">Spain</text><text x="346" y="55" text-anchor="start" fill="#6b6a66" font-size="11">30.9</text>
<rect x="130" y="62" width="165" height="12" rx="2" fill="#D85A30"/><text x="123" y="71" text-anchor="end" fill="#6b6a66" font-size="11">France</text><text x="299" y="71" text-anchor="start" fill="#6b6a66" font-size="11">24.1</text>
<rect x="130" y="78" width="159" height="12" rx="2" fill="#7F77DD"/><text x="123" y="87" text-anchor="end" fill="#6b6a66" font-size="11">Argentina</text><text x="293" y="87" text-anchor="start" fill="#6b6a66" font-size="11">23.2</text>
<rect x="130" y="94" width="75" height="12" rx="2" fill="#BA7517"/><text x="123" y="103" text-anchor="end" fill="#6b6a66" font-size="11">England</text><text x="209" y="103" text-anchor="start" fill="#6b6a66" font-size="11">11.0</text>
<rect x="130" y="110" width="33" height="12" rx="2" fill="#B4B2A9"/><text x="123" y="119" text-anchor="end" fill="#6b6a66" font-size="11">Morocco</text><text x="167" y="119" text-anchor="start" fill="#6b6a66" font-size="11">4.8</text>
<rect x="130" y="126" width="23" height="12" rx="2" fill="#B4B2A9"/><text x="123" y="135" text-anchor="end" fill="#6b6a66" font-size="11">Norway</text><text x="157" y="135" text-anchor="start" fill="#6b6a66" font-size="11">3.3</text>
<rect x="130" y="142" width="10" height="12" rx="2" fill="#B4B2A9"/><text x="123" y="151" text-anchor="end" fill="#6b6a66" font-size="11">Switzerland</text><text x="144" y="151" text-anchor="start" fill="#6b6a66" font-size="11">1.5</text>
<rect x="130" y="158" width="8" height="12" rx="2" fill="#B4B2A9"/><text x="123" y="167" text-anchor="end" fill="#6b6a66" font-size="11">Belgium</text><text x="142" y="167" text-anchor="start" fill="#6b6a66" font-size="11">1.2</text>
</svg>
