<svg width="640" viewBox="0 0 680 300" xmlns="http://www.w3.org/2000/svg" font-family="Segoe UI, Helvetica, Arial, sans-serif" role="img" aria-label="Title odds before the Round of 16">
<title>Title odds before the Round of 16 (16 teams)</title>
<text x="10" y="26" text-anchor="start" fill="#6b6a66" font-size="14">1 · Before the Round of 16 (Jul 4) — a wide-open field of 16</text>
<rect x="130" y="46" width="175" height="11" rx="2" fill="#D85A30"/><text x="123" y="55" text-anchor="end" fill="#6b6a66" font-size="11">France</text><text x="309" y="55" text-anchor="start" fill="#6b6a66" font-size="11">25.5</text>
<rect x="130" y="61" width="152" height="11" rx="2" fill="#0F6E56"/><text x="123" y="70" text-anchor="end" fill="#6b6a66" font-size="11">Spain</text><text x="286" y="70" text-anchor="start" fill="#6b6a66" font-size="11">22.2</text>
<rect x="130" y="76" width="141" height="11" rx="2" fill="#7F77DD"/><text x="123" y="85" text-anchor="end" fill="#6b6a66" font-size="11">Argentina</text><text x="275" y="85" text-anchor="start" fill="#6b6a66" font-size="11">20.6</text>
<rect x="130" y="91" width="58" height="11" rx="2" fill="#B4B2A9"/><text x="123" y="100" text-anchor="end" fill="#6b6a66" font-size="11">Brazil</text><text x="192" y="100" text-anchor="start" fill="#6b6a66" font-size="11">8.4</text>
<rect x="130" y="106" width="32" height="11" rx="2" fill="#BA7517"/><text x="123" y="115" text-anchor="end" fill="#6b6a66" font-size="11">England</text><text x="166" y="115" text-anchor="start" fill="#6b6a66" font-size="11">4.6</text>
<rect x="130" y="121" width="29" height="11" rx="2" fill="#B4B2A9"/><text x="123" y="130" text-anchor="end" fill="#6b6a66" font-size="11">Morocco</text><text x="163" y="130" text-anchor="start" fill="#6b6a66" font-size="11">4.2</text>
<rect x="130" y="136" width="29" height="11" rx="2" fill="#B4B2A9"/><text x="123" y="145" text-anchor="end" fill="#6b6a66" font-size="11">Portugal</text><text x="163" y="145" text-anchor="start" fill="#6b6a66" font-size="11">4.2</text>
<rect x="130" y="151" width="23" height="11" rx="2" fill="#B4B2A9"/><text x="123" y="160" text-anchor="end" fill="#6b6a66" font-size="11">Colombia</text><text x="157" y="160" text-anchor="start" fill="#6b6a66" font-size="11">3.3</text>
<rect x="130" y="166" width="21" height="11" rx="2" fill="#B4B2A9"/><text x="123" y="175" text-anchor="end" fill="#6b6a66" font-size="11">Mexico</text><text x="155" y="175" text-anchor="start" fill="#6b6a66" font-size="11">3.1</text>
<rect x="130" y="181" width="7" height="11" rx="2" fill="#B4B2A9"/><text x="123" y="190" text-anchor="end" fill="#6b6a66" font-size="11">Norway</text><text x="141" y="190" text-anchor="start" fill="#6b6a66" font-size="11">1.0</text>
<rect x="130" y="196" width="6" height="11" rx="2" fill="#B4B2A9"/><text x="123" y="205" text-anchor="end" fill="#6b6a66" font-size="11">Switzerland</text><text x="140" y="205" text-anchor="start" fill="#6b6a66" font-size="11">0.9</text>
<rect x="130" y="211" width="5" height="11" rx="2" fill="#B4B2A9"/><text x="123" y="220" text-anchor="end" fill="#6b6a66" font-size="11">Belgium</text><text x="139" y="220" text-anchor="start" fill="#6b6a66" font-size="11">0.7</text>
<rect x="130" y="226" width="4" height="11" rx="2" fill="#B4B2A9"/><text x="123" y="235" text-anchor="end" fill="#6b6a66" font-size="11">United States</text><text x="138" y="235" text-anchor="start" fill="#6b6a66" font-size="11">0.6</text>
<rect x="130" y="241" width="2" height="11" rx="2" fill="#B4B2A9"/><text x="123" y="250" text-anchor="end" fill="#6b6a66" font-size="11">Canada</text><text x="136" y="250" text-anchor="start" fill="#6b6a66" font-size="11">0.3</text>
<rect x="130" y="256" width="2" height="11" rx="2" fill="#B4B2A9"/><text x="123" y="265" text-anchor="end" fill="#6b6a66" font-size="11">Paraguay</text><text x="136" y="265" text-anchor="start" fill="#6b6a66" font-size="11">0.3</text>
<rect x="130" y="271" width="1" height="11" rx="2" fill="#B4B2A9"/><text x="123" y="280" text-anchor="end" fill="#6b6a66" font-size="11">Egypt</text><text x="135" y="280" text-anchor="start" fill="#6b6a66" font-size="11">0.1</text>
</svg>
