<svg width="680" viewBox="0 0 680 240" xmlns="http://www.w3.org/2000/svg" font-family="Segoe UI, Helvetica, Arial, sans-serif" role="img" aria-label="Probability of each remaining team winning the 2026 World Cup">
<title>Probability of winning the 2026 World Cup</title>
<text x="10" y="28" text-anchor="start" fill="#6b6a66" font-size="14">Probability of winning the 2026 World Cup (%)  —  20,000 simulations from the quarter-finals</text>
<rect x="125" y="46" width="428" height="14" rx="2" fill="#0F6E56"/><text x="118" y="57" text-anchor="end" fill="#6b6a66" font-size="12">Spain</text><text x="558" y="57" text-anchor="start" fill="#6b6a66" font-size="11">30.9</text>
<rect x="125" y="67" width="334" height="14" rx="2" fill="#0F6E56"/><text x="118" y="78" text-anchor="end" fill="#6b6a66" font-size="12">France</text><text x="464" y="78" text-anchor="start" fill="#6b6a66" font-size="11">24.1</text>
<rect x="125" y="88" width="321" height="14" rx="2" fill="#0F6E56"/><text x="118" y="99" text-anchor="end" fill="#6b6a66" font-size="12">Argentina</text><text x="451" y="99" text-anchor="start" fill="#6b6a66" font-size="11">23.2</text>
<rect x="125" y="109" width="152" height="14" rx="2" fill="#1D9E75"/><text x="118" y="120" text-anchor="end" fill="#6b6a66" font-size="12">England</text><text x="282" y="120" text-anchor="start" fill="#6b6a66" font-size="11">11.0</text>
<rect x="125" y="130" width="66" height="14" rx="2" fill="#5DCAA5"/><text x="118" y="141" text-anchor="end" fill="#6b6a66" font-size="12">Morocco</text><text x="196" y="141" text-anchor="start" fill="#6b6a66" font-size="11">4.8</text>
<rect x="125" y="151" width="46" height="14" rx="2" fill="#5DCAA5"/><text x="118" y="162" text-anchor="end" fill="#6b6a66" font-size="12">Norway</text><text x="176" y="162" text-anchor="start" fill="#6b6a66" font-size="11">3.3</text>
<rect x="125" y="172" width="21" height="14" rx="2" fill="#9FE1CB"/><text x="118" y="183" text-anchor="end" fill="#6b6a66" font-size="12">Switzerland</text><text x="151" y="183" text-anchor="start" fill="#6b6a66" font-size="11">1.5</text>
<rect x="125" y="193" width="17" height="14" rx="2" fill="#9FE1CB"/><text x="118" y="204" text-anchor="end" fill="#6b6a66" font-size="12">Belgium</text><text x="147" y="204" text-anchor="start" fill="#6b6a66" font-size="11">1.2</text>
</svg>
