<svg width="680" viewBox="0 0 680 400" xmlns="http://www.w3.org/2000/svg" font-family="Segoe UI, Helvetica, Arial, sans-serif" role="img" aria-label="Probability of each team winning the 2026 World Cup">
<title>Probability of winning the 2026 World Cup</title>
<text x="10" y="28" text-anchor="start" fill="#6b6a66" font-size="14">Probability of winning the 2026 World Cup (%)  —  20,000 simulations</text>
<rect x="125" y="46" width="412" height="14" rx="2" fill="#0F6E56"/><text x="118" y="57" text-anchor="end" fill="#6b6a66" font-size="12">Argentina</text><text x="543" y="57" text-anchor="start" fill="#6b6a66" font-size="11">23.7</text>
<rect x="125" y="67" width="379" height="14" rx="2" fill="#0F6E56"/><text x="118" y="78" text-anchor="end" fill="#6b6a66" font-size="12">France</text><text x="510" y="78" text-anchor="start" fill="#6b6a66" font-size="11">21.8</text>
<rect x="125" y="88" width="297" height="14" rx="2" fill="#0F6E56"/><text x="118" y="99" text-anchor="end" fill="#6b6a66" font-size="12">Spain</text><text x="428" y="99" text-anchor="start" fill="#6b6a66" font-size="11">17.1</text>
<rect x="125" y="109" width="181" height="14" rx="2" fill="#1D9E75"/><text x="118" y="120" text-anchor="end" fill="#6b6a66" font-size="12">Brazil</text><text x="312" y="120" text-anchor="start" fill="#6b6a66" font-size="11">10.4</text>
<rect x="125" y="130" width="96" height="14" rx="2" fill="#1D9E75"/><text x="118" y="141" text-anchor="end" fill="#6b6a66" font-size="12">England</text><text x="227" y="141" text-anchor="start" fill="#6b6a66" font-size="11">5.5</text>
<rect x="125" y="151" width="92" height="14" rx="2" fill="#1D9E75"/><text x="118" y="162" text-anchor="end" fill="#6b6a66" font-size="12">Colombia</text><text x="223" y="162" text-anchor="start" fill="#6b6a66" font-size="11">5.3</text>
<rect x="125" y="172" width="87" height="14" rx="2" fill="#1D9E75"/><text x="118" y="183" text-anchor="end" fill="#6b6a66" font-size="12">Morocco</text><text x="218" y="183" text-anchor="start" fill="#6b6a66" font-size="11">5.0</text>
<rect x="125" y="193" width="57" height="14" rx="2" fill="#5DCAA5"/><text x="118" y="204" text-anchor="end" fill="#6b6a66" font-size="12">Mexico</text><text x="188" y="204" text-anchor="start" fill="#6b6a66" font-size="11">3.3</text>
<rect x="125" y="214" width="45" height="14" rx="2" fill="#5DCAA5"/><text x="118" y="225" text-anchor="end" fill="#6b6a66" font-size="12">Portugal</text><text x="176" y="225" text-anchor="start" fill="#6b6a66" font-size="11">2.6</text>
<rect x="125" y="235" width="28" height="14" rx="2" fill="#5DCAA5"/><text x="118" y="246" text-anchor="end" fill="#6b6a66" font-size="12">Switzerland</text><text x="159" y="246" text-anchor="start" fill="#6b6a66" font-size="11">1.6</text>
<rect x="125" y="256" width="24" height="14" rx="2" fill="#5DCAA5"/><text x="118" y="267" text-anchor="end" fill="#6b6a66" font-size="12">Norway</text><text x="155" y="267" text-anchor="start" fill="#6b6a66" font-size="11">1.4</text>
<rect x="125" y="277" width="19" height="14" rx="2" fill="#5DCAA5"/><text x="118" y="288" text-anchor="end" fill="#6b6a66" font-size="12">Belgium</text><text x="150" y="288" text-anchor="start" fill="#6b6a66" font-size="11">1.1</text>
<rect x="125" y="298" width="10" height="14" rx="2" fill="#9FE1CB"/><text x="118" y="309" text-anchor="end" fill="#6b6a66" font-size="12">United States</text><text x="141" y="309" text-anchor="start" fill="#6b6a66" font-size="11">0.6</text>
<rect x="125" y="319" width="6" height="14" rx="2" fill="#9FE1CB"/><text x="118" y="330" text-anchor="end" fill="#6b6a66" font-size="12">Canada</text><text x="137" y="330" text-anchor="start" fill="#6b6a66" font-size="11">0.3</text>
<rect x="125" y="340" width="6" height="14" rx="2" fill="#9FE1CB"/><text x="118" y="351" text-anchor="end" fill="#6b6a66" font-size="12">Paraguay</text><text x="137" y="351" text-anchor="start" fill="#6b6a66" font-size="11">0.3</text>
<rect x="125" y="361" width="2" height="14" rx="2" fill="#9FE1CB"/><text x="118" y="372" text-anchor="end" fill="#6b6a66" font-size="12">Egypt</text><text x="133" y="372" text-anchor="start" fill="#6b6a66" font-size="11">0.0</text>
</svg>
