<svg width="680" viewBox="0 0 680 400" xmlns="http://www.w3.org/2000/svg" font-family="Segoe UI, Helvetica, Arial, sans-serif" role="img" aria-label="Probability of each team winning the 2026 World Cup">
<title>Probability of winning the 2026 World Cup</title>
<text x="10" y="28" text-anchor="start" fill="#6b6a66" font-size="14">Probability of winning the 2026 World Cup (%)  —  20,000 simulations</text>
<rect x="125" y="46" width="408" height="14" rx="2" fill="#0F6E56"/><text x="118" y="57" text-anchor="end" fill="#6b6a66" font-size="12">France</text><text x="538" y="57" text-anchor="start" fill="#6b6a66" font-size="11">25.5</text>
<rect x="125" y="67" width="355" height="14" rx="2" fill="#0F6E56"/><text x="118" y="78" text-anchor="end" fill="#6b6a66" font-size="12">Spain</text><text x="485" y="78" text-anchor="start" fill="#6b6a66" font-size="11">22.2</text>
<rect x="125" y="88" width="330" height="14" rx="2" fill="#0F6E56"/><text x="118" y="99" text-anchor="end" fill="#6b6a66" font-size="12">Argentina</text><text x="460" y="99" text-anchor="start" fill="#6b6a66" font-size="11">20.6</text>
<rect x="125" y="109" width="134" height="14" rx="2" fill="#1D9E75"/><text x="118" y="120" text-anchor="end" fill="#6b6a66" font-size="12">Brazil</text><text x="264" y="120" text-anchor="start" fill="#6b6a66" font-size="11">8.4</text>
<rect x="125" y="130" width="74" height="14" rx="2" fill="#5DCAA5"/><text x="118" y="141" text-anchor="end" fill="#6b6a66" font-size="12">England</text><text x="204" y="141" text-anchor="start" fill="#6b6a66" font-size="11">4.6</text>
<rect x="125" y="151" width="67" height="14" rx="2" fill="#5DCAA5"/><text x="118" y="162" text-anchor="end" fill="#6b6a66" font-size="12">Morocco</text><text x="197" y="162" text-anchor="start" fill="#6b6a66" font-size="11">4.2</text>
<rect x="125" y="172" width="67" height="14" rx="2" fill="#5DCAA5"/><text x="118" y="183" text-anchor="end" fill="#6b6a66" font-size="12">Portugal</text><text x="197" y="183" text-anchor="start" fill="#6b6a66" font-size="11">4.2</text>
<rect x="125" y="193" width="53" height="14" rx="2" fill="#5DCAA5"/><text x="118" y="204" text-anchor="end" fill="#6b6a66" font-size="12">Colombia</text><text x="183" y="204" text-anchor="start" fill="#6b6a66" font-size="11">3.3</text>
<rect x="125" y="214" width="50" height="14" rx="2" fill="#5DCAA5"/><text x="118" y="225" text-anchor="end" fill="#6b6a66" font-size="12">Mexico</text><text x="180" y="225" text-anchor="start" fill="#6b6a66" font-size="11">3.1</text>
<rect x="125" y="235" width="16" height="14" rx="2" fill="#9FE1CB"/><text x="118" y="246" text-anchor="end" fill="#6b6a66" font-size="12">Norway</text><text x="146" y="246" text-anchor="start" fill="#6b6a66" font-size="11">1.0</text>
<rect x="125" y="256" width="14" height="14" rx="2" fill="#E1F5EE"/><text x="118" y="267" text-anchor="end" fill="#6b6a66" font-size="12">Switzerland</text><text x="144" y="267" text-anchor="start" fill="#6b6a66" font-size="11">0.9</text>
<rect x="125" y="277" width="11" height="14" rx="2" fill="#E1F5EE"/><text x="118" y="288" text-anchor="end" fill="#6b6a66" font-size="12">Belgium</text><text x="141" y="288" text-anchor="start" fill="#6b6a66" font-size="11">0.7</text>
<rect x="125" y="298" width="10" height="14" rx="2" fill="#E1F5EE"/><text x="118" y="309" text-anchor="end" fill="#6b6a66" font-size="12">United States</text><text x="140" y="309" text-anchor="start" fill="#6b6a66" font-size="11">0.6</text>
<rect x="125" y="319" width="8" height="14" rx="2" fill="#E1F5EE"/><text x="118" y="330" text-anchor="end" fill="#6b6a66" font-size="12">Paraguay</text><text x="138" y="330" text-anchor="start" fill="#6b6a66" font-size="11">0.5</text>
<rect x="125" y="340" width="5" height="14" rx="2" fill="#E1F5EE"/><text x="118" y="351" text-anchor="end" fill="#6b6a66" font-size="12">Canada</text><text x="135" y="351" text-anchor="start" fill="#6b6a66" font-size="11">0.3</text>
<rect x="125" y="361" width="2" height="14" rx="2" fill="#E1F5EE"/><text x="118" y="372" text-anchor="end" fill="#6b6a66" font-size="12">Egypt</text><text x="133" y="372" text-anchor="start" fill="#6b6a66" font-size="11">0.1</text>
</svg>
